<svg width="309" height="73" viewBox="0 0 309 73" fill="none" xmlns="http://www.w3.org/2000/svg">
<path d="M88.1016 38.4258L80.3672 62H74.1367L84.7031 33.5625H88.668L88.1016 38.4258ZM94.5273 62L86.7734 38.4258L86.1484 33.5625H90.1523L100.777 62H94.5273ZM94.1758 51.4141V56.0039H79.1562V51.4141H94.1758ZM107.945 45.3789V62H102.32V40.8672H107.594L107.945 45.3789ZM107.125 50.6914H105.602C105.602 49.1289 105.803 47.7227 106.207 46.4727C106.611 45.2096 107.177 44.1354 107.906 43.25C108.635 42.3516 109.501 41.668 110.504 41.1992C111.52 40.7174 112.652 40.4766 113.902 40.4766C114.892 40.4766 115.797 40.6198 116.617 40.9062C117.438 41.1927 118.141 41.6484 118.727 42.2734C119.326 42.8984 119.781 43.7253 120.094 44.7539C120.419 45.7826 120.582 47.0391 120.582 48.5234V62H114.918V48.5039C114.918 47.5664 114.788 46.8372 114.527 46.3164C114.267 45.7956 113.883 45.431 113.375 45.2227C112.88 45.0013 112.268 44.8906 111.539 44.8906C110.784 44.8906 110.126 45.0404 109.566 45.3398C109.02 45.6393 108.564 46.056 108.199 46.5898C107.848 47.1107 107.581 47.7227 107.398 48.4258C107.216 49.1289 107.125 49.8841 107.125 50.6914ZM133.59 57.9961C134.28 57.9961 134.892 57.8659 135.426 57.6055C135.96 57.332 136.376 56.9544 136.676 56.4727C136.988 55.9779 137.151 55.3984 137.164 54.7344H142.457C142.444 56.2188 142.047 57.5404 141.266 58.6992C140.484 59.8451 139.436 60.75 138.121 61.4141C136.806 62.0651 135.335 62.3906 133.707 62.3906C132.066 62.3906 130.634 62.1172 129.41 61.5703C128.199 61.0234 127.19 60.2682 126.383 59.3047C125.576 58.3281 124.97 57.1953 124.566 55.9062C124.163 54.6042 123.961 53.2109 123.961 51.7266V51.1602C123.961 49.6628 124.163 48.2695 124.566 46.9805C124.97 45.6784 125.576 44.5456 126.383 43.582C127.19 42.6055 128.199 41.8438 129.41 41.2969C130.621 40.75 132.04 40.4766 133.668 40.4766C135.4 40.4766 136.917 40.8086 138.219 41.4727C139.534 42.1367 140.562 43.0872 141.305 44.3242C142.06 45.5482 142.444 47 142.457 48.6797H137.164C137.151 47.9766 137.001 47.3385 136.715 46.7656C136.441 46.1927 136.038 45.737 135.504 45.3984C134.983 45.0469 134.339 44.8711 133.57 44.8711C132.75 44.8711 132.079 45.0469 131.559 45.3984C131.038 45.737 130.634 46.2057 130.348 46.8047C130.061 47.3906 129.859 48.0612 129.742 48.8164C129.638 49.5586 129.586 50.3398 129.586 51.1602V51.7266C129.586 52.5469 129.638 53.3346 129.742 54.0898C129.846 54.8451 130.042 55.5156 130.328 56.1016C130.628 56.6875 131.038 57.1497 131.559 57.4883C132.079 57.8268 132.757 57.9961 133.59 57.9961ZM151.656 40.8672V62H146.012V40.8672H151.656ZM145.66 35.3594C145.66 34.5391 145.947 33.862 146.52 33.3281C147.092 32.7943 147.861 32.5273 148.824 32.5273C149.775 32.5273 150.536 32.7943 151.109 33.3281C151.695 33.862 151.988 34.5391 151.988 35.3594C151.988 36.1797 151.695 36.8568 151.109 37.3906C150.536 37.9245 149.775 38.1914 148.824 38.1914C147.861 38.1914 147.092 37.9245 146.52 37.3906C145.947 36.8568 145.66 36.1797 145.66 35.3594ZM166.031 62.3906C164.391 62.3906 162.919 62.1302 161.617 61.6094C160.315 61.0755 159.208 60.3398 158.297 59.4023C157.398 58.4648 156.708 57.3776 156.227 56.1406C155.745 54.8906 155.504 53.5625 155.504 52.1562V51.375C155.504 49.7734 155.732 48.3086 156.188 46.9805C156.643 45.6523 157.294 44.5 158.141 43.5234C159 42.5469 160.042 41.7982 161.266 41.2773C162.49 40.7435 163.87 40.4766 165.406 40.4766C166.904 40.4766 168.232 40.724 169.391 41.2188C170.549 41.7135 171.52 42.4167 172.301 43.3281C173.095 44.2396 173.694 45.3333 174.098 46.6094C174.501 47.8724 174.703 49.2786 174.703 50.8281V53.1719H157.906V49.4219H169.176V48.9922C169.176 48.2109 169.033 47.5143 168.746 46.9023C168.473 46.2773 168.056 45.7826 167.496 45.418C166.936 45.0534 166.22 44.8711 165.348 44.8711C164.605 44.8711 163.967 45.0339 163.434 45.3594C162.9 45.6849 162.464 46.1406 162.125 46.7266C161.799 47.3125 161.552 48.0026 161.383 48.7969C161.227 49.5781 161.148 50.4375 161.148 51.375V52.1562C161.148 53.0026 161.266 53.7839 161.5 54.5C161.747 55.2161 162.092 55.8346 162.535 56.3555C162.991 56.8763 163.538 57.2799 164.176 57.5664C164.827 57.8529 165.562 57.9961 166.383 57.9961C167.398 57.9961 168.342 57.8008 169.215 57.4102C170.1 57.0065 170.862 56.401 171.5 55.5938L174.234 58.5625C173.792 59.2005 173.186 59.8125 172.418 60.3984C171.663 60.9844 170.751 61.4661 169.684 61.8438C168.616 62.2083 167.398 62.3906 166.031 62.3906ZM183.414 45.3789V62H177.789V40.8672H183.062L183.414 45.3789ZM182.594 50.6914H181.07C181.07 49.1289 181.272 47.7227 181.676 46.4727C182.079 45.2096 182.646 44.1354 183.375 43.25C184.104 42.3516 184.97 41.668 185.973 41.1992C186.988 40.7174 188.121 40.4766 189.371 40.4766C190.361 40.4766 191.266 40.6198 192.086 40.9062C192.906 41.1927 193.609 41.6484 194.195 42.2734C194.794 42.8984 195.25 43.7253 195.562 44.7539C195.888 45.7826 196.051 47.0391 196.051 48.5234V62H190.387V48.5039C190.387 47.5664 190.257 46.8372 189.996 46.3164C189.736 45.7956 189.352 45.431 188.844 45.2227C188.349 45.0013 187.737 44.8906 187.008 44.8906C186.253 44.8906 185.595 45.0404 185.035 45.3398C184.488 45.6393 184.033 46.056 183.668 46.5898C183.316 47.1107 183.049 47.7227 182.867 48.4258C182.685 49.1289 182.594 49.8841 182.594 50.6914ZM210.68 40.8672V44.8516H198.375V40.8672H210.68ZM201.422 35.6523H207.047V55.6328C207.047 56.2448 207.125 56.7135 207.281 57.0391C207.451 57.3646 207.698 57.5924 208.023 57.7227C208.349 57.8398 208.759 57.8984 209.254 57.8984C209.605 57.8984 209.918 57.8854 210.191 57.8594C210.478 57.8203 210.719 57.7812 210.914 57.7422L210.934 61.8828C210.452 62.0391 209.931 62.1628 209.371 62.2539C208.811 62.3451 208.193 62.3906 207.516 62.3906C206.279 62.3906 205.198 62.1888 204.273 61.7852C203.362 61.3685 202.659 60.7044 202.164 59.793C201.669 58.8815 201.422 57.6836 201.422 56.1992V35.6523ZM235.27 51.8633H228.023V47.293H235.27C236.389 47.293 237.301 47.1107 238.004 46.7461C238.707 46.3685 239.221 45.8477 239.547 45.1836C239.872 44.5195 240.035 43.7708 240.035 42.9375C240.035 42.0911 239.872 41.3034 239.547 40.5742C239.221 39.8451 238.707 39.2591 238.004 38.8164C237.301 38.3737 236.389 38.1523 235.27 38.1523H230.055V62H224.195V33.5625H235.27C237.496 33.5625 239.404 33.9661 240.992 34.7734C242.594 35.5677 243.818 36.668 244.664 38.0742C245.51 39.4805 245.934 41.0885 245.934 42.8984C245.934 44.7344 245.51 46.3229 244.664 47.6641C243.818 49.0052 242.594 50.0404 240.992 50.7695C239.404 51.4987 237.496 51.8633 235.27 51.8633ZM260.797 57.2344V47.8203C260.797 47.1432 260.686 46.5638 260.465 46.082C260.243 45.5872 259.898 45.2031 259.43 44.9297C258.974 44.6562 258.382 44.5195 257.652 44.5195C257.027 44.5195 256.487 44.6302 256.031 44.8516C255.576 45.0599 255.224 45.3659 254.977 45.7695C254.729 46.1602 254.605 46.6224 254.605 47.1562H248.98C248.98 46.2578 249.189 45.4049 249.605 44.5977C250.022 43.7904 250.628 43.0807 251.422 42.4688C252.216 41.8438 253.16 41.3555 254.254 41.0039C255.361 40.6523 256.598 40.4766 257.965 40.4766C259.605 40.4766 261.064 40.75 262.34 41.2969C263.616 41.8438 264.618 42.6641 265.348 43.7578C266.09 44.8516 266.461 46.2188 266.461 47.8594V56.9023C266.461 58.0612 266.533 59.0117 266.676 59.7539C266.819 60.4831 267.027 61.1211 267.301 61.668V62H261.617C261.344 61.4271 261.135 60.7109 260.992 59.8516C260.862 58.9792 260.797 58.1068 260.797 57.2344ZM261.539 49.1289L261.578 52.3125H258.434C257.691 52.3125 257.047 52.3971 256.5 52.5664C255.953 52.7357 255.504 52.9766 255.152 53.2891C254.801 53.5885 254.54 53.9401 254.371 54.3438C254.215 54.7474 254.137 55.1901 254.137 55.6719C254.137 56.1536 254.247 56.5898 254.469 56.9805C254.69 57.3581 255.009 57.6576 255.426 57.8789C255.842 58.0872 256.331 58.1914 256.891 58.1914C257.737 58.1914 258.473 58.0221 259.098 57.6836C259.723 57.3451 260.204 56.9284 260.543 56.4336C260.895 55.9388 261.077 55.4701 261.09 55.0273L262.574 57.4102C262.366 57.944 262.079 58.4974 261.715 59.0703C261.363 59.6432 260.914 60.1836 260.367 60.6914C259.82 61.1862 259.163 61.5964 258.395 61.9219C257.626 62.2344 256.715 62.3906 255.66 62.3906C254.319 62.3906 253.102 62.1237 252.008 61.5898C250.927 61.043 250.068 60.2943 249.43 59.3438C248.805 58.3802 248.492 57.2865 248.492 56.0625C248.492 54.9557 248.701 53.9727 249.117 53.1133C249.534 52.2539 250.146 51.5312 250.953 50.9453C251.773 50.3464 252.796 49.8971 254.02 49.5977C255.243 49.2852 256.663 49.1289 258.277 49.1289H261.539ZM281.148 40.8672V44.8516H268.844V40.8672H281.148ZM271.891 35.6523H277.516V55.6328C277.516 56.2448 277.594 56.7135 277.75 57.0391C277.919 57.3646 278.167 57.5924 278.492 57.7227C278.818 57.8398 279.228 57.8984 279.723 57.8984C280.074 57.8984 280.387 57.8854 280.66 57.8594C280.947 57.8203 281.188 57.7812 281.383 57.7422L281.402 61.8828C280.921 62.0391 280.4 62.1628 279.84 62.2539C279.28 62.3451 278.661 62.3906 277.984 62.3906C276.747 62.3906 275.667 62.1888 274.742 61.7852C273.831 61.3685 273.128 60.7044 272.633 59.793C272.138 58.8815 271.891 57.6836 271.891 56.1992V35.6523ZM289.84 32V62H284.215V32H289.84ZM289.039 50.6914H287.496C287.509 49.2201 287.704 47.8659 288.082 46.6289C288.46 45.3789 289 44.2982 289.703 43.3867C290.406 42.4622 291.246 41.7461 292.223 41.2383C293.212 40.7305 294.306 40.4766 295.504 40.4766C296.546 40.4766 297.49 40.6263 298.336 40.9258C299.195 41.2122 299.931 41.681 300.543 42.332C301.168 42.9701 301.65 43.8099 301.988 44.8516C302.327 45.8932 302.496 47.1562 302.496 48.6406V62H296.832V48.6016C296.832 47.6641 296.695 46.9284 296.422 46.3945C296.161 45.8477 295.777 45.4635 295.27 45.2422C294.775 45.0078 294.163 44.8906 293.434 44.8906C292.626 44.8906 291.936 45.0404 291.363 45.3398C290.803 45.6393 290.354 46.056 290.016 46.5898C289.677 47.1107 289.43 47.7227 289.273 48.4258C289.117 49.1289 289.039 49.8841 289.039 50.6914Z" fill="#1E293B"/>
<path d="M82.2852 7.9375V25H80.0586V7.9375H82.2852ZM87.7695 7.9375V9.78906H74.5859V7.9375H87.7695ZM92.1406 7V25H89.9727V7H92.1406ZM91.625 18.1797L90.7227 18.1445C90.7305 17.2773 90.8594 16.4766 91.1094 15.7422C91.3594 15 91.7109 14.3555 92.1641 13.8086C92.6172 13.2617 93.1562 12.8398 93.7812 12.543C94.4141 12.2383 95.1133 12.0859 95.8789 12.0859C96.5039 12.0859 97.0664 12.1719 97.5664 12.3438C98.0664 12.5078 98.4922 12.7734 98.8438 13.1406C99.2031 13.5078 99.4766 13.9844 99.6641 14.5703C99.8516 15.1484 99.9453 15.8555 99.9453 16.6914V25H97.7656V16.668C97.7656 16.0039 97.668 15.4727 97.4727 15.0742C97.2773 14.668 96.9922 14.375 96.6172 14.1953C96.2422 14.0078 95.7812 13.9141 95.2344 13.9141C94.6953 13.9141 94.2031 14.0273 93.7578 14.2539C93.3203 14.4805 92.9414 14.793 92.6211 15.1914C92.3086 15.5898 92.0625 16.0469 91.8828 16.5625C91.7109 17.0703 91.625 17.6094 91.625 18.1797ZM108.453 25.2344C107.57 25.2344 106.77 25.0859 106.051 24.7891C105.34 24.4844 104.727 24.0586 104.211 23.5117C103.703 22.9648 103.312 22.3164 103.039 21.5664C102.766 20.8164 102.629 19.9961 102.629 19.1055V18.6133C102.629 17.582 102.781 16.6641 103.086 15.8594C103.391 15.0469 103.805 14.3594 104.328 13.7969C104.852 13.2344 105.445 12.8086 106.109 12.5195C106.773 12.2305 107.461 12.0859 108.172 12.0859C109.078 12.0859 109.859 12.2422 110.516 12.5547C111.18 12.8672 111.723 13.3047 112.145 13.8672C112.566 14.4219 112.879 15.0781 113.082 15.8359C113.285 16.5859 113.387 17.4062 113.387 18.2969V19.2695H103.918V17.5H111.219V17.3359C111.188 16.7734 111.07 16.2266 110.867 15.6953C110.672 15.1641 110.359 14.7266 109.93 14.3828C109.5 14.0391 108.914 13.8672 108.172 13.8672C107.68 13.8672 107.227 13.9727 106.812 14.1836C106.398 14.3867 106.043 14.6914 105.746 15.0977C105.449 15.5039 105.219 16 105.055 16.5859C104.891 17.1719 104.809 17.8477 104.809 18.6133V19.1055C104.809 19.707 104.891 20.2734 105.055 20.8047C105.227 21.3281 105.473 21.7891 105.793 22.1875C106.121 22.5859 106.516 22.8984 106.977 23.125C107.445 23.3516 107.977 23.4648 108.57 23.4648C109.336 23.4648 109.984 23.3086 110.516 22.9961C111.047 22.6836 111.512 22.2656 111.91 21.7422L113.223 22.7852C112.949 23.1992 112.602 23.5938 112.18 23.9688C111.758 24.3438 111.238 24.6484 110.621 24.8828C110.012 25.1172 109.289 25.2344 108.453 25.2344Z" fill="#64748B"/>
<mask id="mask0_3_264" style="mask-type:alpha" maskUnits="userSpaceOnUse" x="0" y="0" width="68" height="68">
<circle cx="33.9286" cy="33.9286" r="33.9286" fill="white"/>
</mask>
<g mask="url(#mask0_3_264)">
<circle cx="33.9286" cy="33.9286" r="33.9286" fill="white"/>
<circle cx="38" cy="28.5" r="12.2143" fill="#FB7185"/>
<rect x="9.5" y="62.3321" width="59.3616" height="59.3616" rx="5" transform="rotate(-45 9.5 62.3321)" fill="#7DD3FC"/>
<path d="M38.5836 33.25L39.2621 32.5714C40.6193 32.5714 43.8023 35.6595 44.7857 36.6429C45.7691 37.6263 47.9117 41.5607 48.1786 43.4286C48.8571 48.1786 42.75 53.6071 38.6786 53.6071L36.6429 50.8929C37.5476 50.4405 40.2686 50.66 44.1071 46.8214C47.9457 42.9828 42.2026 35.5119 38.5836 33.25Z" fill="#51B7E8"/>
<rect x="-24.4286" y="73.1893" width="59.3616" height="59.3616" rx="5" transform="rotate(-45 -24.4286 73.1893)" fill="#38BDF8"/>
<path d="M34.6071 48.1786L31.2143 44.8807C29.8571 48.1786 29.1786 53.6071 23.0714 57C16.9943 60.3762 0.226195 60.619 -3.39285 59.7143L8.82143 76.6786C9.27381 75.0952 22.3929 73.2857 29.8571 65.8214C33.25 62.4286 34.6071 54.2857 34.6071 48.1786Z" fill="#33A9DD"/>
</g>
</svg>
